inDegrees=no
num_controls=7
num_derivatives=13
num_iterations=150
num_multipliers=7
num_parameters=0
num_slacks=7
num_states=26
objective=0.462917
objective_accelerations=0.001656
objective_balance=0.002107
objective_effort=0.003530
objective_height=0.455384
objective_ligament=0.000241
solver_duration=2010.811782
status=Solve_Succeeded
success=true
DataType=double
version=3
OpenSimVersion=4.5
endheader
time	/jointset/ground_pelvis/pelvis_tilt/value	/jointset/ground_pelvis/pelvis_tx/value	/jointset/ground_pelvis/pelvis_ty/value	/jointset/hip_l/hip_flexion_l/value	/jointset/hip_l/hip_adduction_l/value	/jointset/hip_l/hip_rotation_l/value	/jointset/back/lumbar_extension/value	/jointset/patellofemoral_l/patellar_flexion_l/value	/jointset/knee_l/knee_flexion_l/value	/jointset/knee_l/knee_adduction_l/value	/jointset/knee_l/knee_rotation_l/value	/jointset/ankle_l/ankle_angle_l/value	/jointset/subtalar_l/subtalar_angle_l/value	/jointset/ground_pelvis/pelvis_tilt/speed	/jointset/ground_pelvis/pelvis_tx/speed	/jointset/ground_pelvis/pelvis_ty/speed	/jointset/hip_l/hip_flexion_l/speed	/jointset/hip_l/hip_adduction_l/speed	/jointset/hip_l/hip_rotation_l/speed	/jointset/back/lumbar_extension/speed	/jointset/patellofemoral_l/patellar_flexion_l/speed	/jointset/knee_l/knee_flexion_l/speed	/jointset/knee_l/knee_adduction_l/speed	/jointset/knee_l/knee_rotation_l/speed	/jointset/ankle_l/ankle_angle_l/speed	/jointset/subtalar_l/subtalar_angle_l/speed	/forceset/tau_hip_flexion_l	/forceset/tau_hip_adduction_l	/forceset/tau_hip_rotation_l	/forceset/tau_knee_flexion_l	/forceset/tau_ankle_angle_l	/forceset/tau_subtalar_angle_l	/forceset/tau_lumbar_extension	lambda_cid13_p0	lambda_cid13_p1	lambda_cid13_p2	lambda_cid13_p3	lambda_cid13_p4	lambda_cid13_p5	lambda_cid14_p0	/jointset/ground_pelvis/pelvis_tilt/accel	/jointset/ground_pelvis/pelvis_tx/accel	/jointset/ground_pelvis/pelvis_ty/accel	/jointset/hip_l/hip_flexion_l/accel	/jointset/hip_l/hip_adduction_l/accel	/jointset/hip_l/hip_rotation_l/accel	/jointset/back/lumbar_extension/accel	/jointset/patellofemoral_l/patellar_flexion_l/accel	/jointset/knee_l/knee_flexion_l/accel	/jointset/knee_l/knee_adduction_l/accel	/jointset/knee_l/knee_rotation_l/accel	/jointset/ankle_l/ankle_angle_l/accel	/jointset/subtalar_l/subtalar_angle_l/accel	gamma_cid13_p0	gamma_cid13_p1	gamma_cid13_p2	gamma_cid13_p3	gamma_cid13_p4	gamma_cid13_p5	gamma_cid14_p0
0	-0.04471310207027819	0.07121057801796042	0.896162974971824	0.1955287580552426	-0.3197242711318851	-0.5278855031853885	-0.1379045077516729	0.07015288079084847	0.07015288079084844	-0.1745276548106185	-0.1601395786200963	-0.06701059314715049	0.006772429756931042	0	0	0	0	0	0	0	0	0	0	0	0	0	0.0498312832570587	-0.05253335035959247	-0.03291202875575414	-0.2002208069901808	0.1956741609296821	-0.02718423605504274	0.005799054992498632	25.498154614007	1.729865095603395	5.798213485631014	-20.25283097242345	-544.9595452002943	-65.55134812642412	-41.12418740302676	-0.2920007645480952	0.1516375711780752	-0.03396256557088774	0.3597358126758131	-0.108155124847999	0.1844701284388697	-0.8907967607989955	0.4572428615367103	0.4572428615367106	0.03781045795891659	0.0360375056304428	0.3990755961163489	0.09974663337378435	-1.291248198653119e-09	-1.297852621165494e-09	2.48761877936036e-09	-2.218083223139231e-10	-3.958526615425664e-09	-5.590318629636898e-09	-2.390184287658971e-10
0.01	-0.04472793820406749	0.0712190158996152	0.8961613536330892	0.1955454795426212	-0.3197295837751306	-0.5278769077473975	-0.1379491950516601	0.07017504261406272	0.07017504261406271	-0.1745259679300935	-0.1601379774542328	-0.06698994778860476	0.006777906334373925	-0.003010072110340685	0.00177152427341455	-0.0003197771768750336	0.003265235656952238	-0.001057075152471006	0.001640292577730105	-0.008936735229375457	0.004408411248499913	0.004408411248500006	0.000331342256412797	0.0002679139219662126	0.004217158195444098	0.001150416625427352	0.05295952451607375	-0.06721859813689127	-0.03381608893192196	-0.2075021537724857	0.2006743278201589	-0.01818792151726109	0.003667779895389276	27.44584913739022	-2.122541170142163	5.960384591584503	-22.99622747700976	-545.1911491274079	-74.38844511346336	-41.12455463210166	-0.3119373834552434	0.2025020024281968	-0.03031249994071101	0.2980579715314026	-0.1036662860643814	0.1419892256639259	-0.8950031887953228	0.4290472951589877	0.4290472951589969	0.02989142323994071	0.01432078306396462	0.4462487607552776	0.1309542823435061	-3.195431788951045e-10	-3.597454779367814e-11	5.782214530491364e-10	-1.04346617373458e-10	-1.864278355092273e-09	-1.627008725845484e-09	2.478728723877206e-11
0.02	-0.04477416044879584	0.07124768745340511	0.8961566690813468	0.1955924814924345	-0.3197453036850241	-0.5278542733029843	-0.1380832279608988	0.07024056995749238	0.07024056995749237	-0.1745211485642522	-0.1601352666596329	-0.06692448828220519	0.006796540099114341	-0.006277222187808803	0.004046734427031101	-0.0006126426015464832	0.006056092486963482	-0.002081453329651196	0.002807801284414014	-0.01786912185029097	0.008673104043094093	0.008673104043094093	0.000626497063124828	0.0002219257473025931	0.008962829570761699	0.002631437459506545	0.05608776577508789	-0.08190384591419003	-0.03472014910808983	-0.2147835005547911	0.2056744947106355	-0.009191606979479502	0.001536504798279356	29.39717961126598	-5.975300605429153	6.122288229115038	-25.76469541145511	-545.3808586595861	-83.21677255852677	-41.12567244838549	-0.3434163579735808	0.2523747472184745	-0.02858021513017088	0.2648600472876144	-0.1016157297898349	0.08991335422963072	-0.8899270391070063	0.4284991707555637	0.4284991707555267	0.03057296801876504	-0.02674291369552371	0.5047782320910488	0.1658674751041531	6.521618408629103e-10	1.225903525578138e-09	-1.331175873262087e-09	1.31150875670071e-11	2.299699052411187e-10	2.336301177945931e-09	2.885930032434412e-10
0.03	-0.04485409928444138	0.07130053336127536	0.896149095734558	0.1956663089626486	-0.3197713100001015	-0.5278212106584921	-0.1383052868787394	0.07034829989722974	0.07034829989722972	-0.1745138018592957	-0.1601338119029694	-0.06681016808475577	0.006830722666668706	-0.009729439231259849	0.006496893772741207	-0.0009069760722033402	0.008759326716968803	-0.003134586667523113	0.003842944940057757	-0.02641388962898132	0.01287551893919361	0.01287551893919352	0.0008135377803914656	9.945174976853721e-05	0.01386564604446611	0.004169201148197256	0.05374718962904826	-0.0774914048674345	-0.03409084436740923	-0.2102022342654009	0.200354541759848	-0.01026501463402386	0.003308441454274766	27.65058519034228	-5.314541956659033	6.144006158859874	-24.35047982712321	-545.3703472224161	-81.59562915591982	-41.12756696963356	-0.3489584764407468	0.2375035252011724	-0.03060225597898121	0.2805439331509246	-0.1093785143053122	0.1160477051375833	-0.8174358339220933	0.4165078454756458	0.4165078454756588	0.008373628889955917	-0.0004359643799942952	0.4776988792910762	0.1423495326833945	4.733914460467916e-10	1.754523299320758e-09	-9.364035743370988e-10	2.57477727464773e-10	7.04992393042951e-10	2.290463059663134e-09	2.699547885466314e-10
